<mxfile host="app.diagrams.net" agent="Mozilla/5.0 (Windows NT 10.0; Win64; x64) AppleWebKit/537.36 (KHTML, like Gecko) Chrome/136.0.0.0 Safari/537.36 Edg/136.0.0.0" version="26.2.14">
  <diagram name="第 1 页" id="zUQR9tzON8Piz5_MDgO6">
    <mxGraphModel dx="1500" dy="826" grid="1" gridSize="10" guides="1" tooltips="1" connect="1" arrows="1" fold="1" page="1" pageScale="1" pageWidth="827" pageHeight="1169" math="0" shadow="0">
      <root>
        <mxCell id="0" />
        <mxCell id="1" parent="0" />
        <mxCell id="YeZupqF_5-cxzTXe40vk-1" value="" style="rounded=0;whiteSpace=wrap;html=1;" vertex="1" parent="1">
          <mxGeometry x="150" y="340" width="480" height="270" as="geometry" />
        </mxCell>
        <mxCell id="YeZupqF_5-cxzTXe40vk-2" value="&lt;font style=&quot;font-size: 16px;&quot;&gt;S&lt;/font&gt;&lt;div&gt;&lt;font style=&quot;font-size: 16px;&quot;&gt;T&lt;/font&gt;&lt;/div&gt;&lt;div&gt;&lt;font style=&quot;font-size: 16px;&quot;&gt;M&lt;/font&gt;&lt;/div&gt;&lt;div&gt;&lt;font style=&quot;font-size: 16px;&quot;&gt;3&lt;/font&gt;&lt;/div&gt;&lt;div&gt;&lt;font style=&quot;font-size: 16px;&quot;&gt;2&lt;/font&gt;&lt;/div&gt;&lt;div&gt;&lt;font style=&quot;font-size: 16px;&quot;&gt;单&lt;/font&gt;&lt;/div&gt;&lt;div&gt;&lt;font style=&quot;font-size: 16px;&quot;&gt;片&lt;/font&gt;&lt;/div&gt;&lt;div&gt;&lt;font style=&quot;font-size: 16px;&quot;&gt;机&lt;/font&gt;&lt;/div&gt;" style="rounded=0;whiteSpace=wrap;html=1;" vertex="1" parent="1">
          <mxGeometry x="460" y="370" width="110" height="210" as="geometry" />
        </mxCell>
        <mxCell id="YeZupqF_5-cxzTXe40vk-3" value="&lt;span style=&quot;font-size: 16px;&quot;&gt;光&lt;/span&gt;&lt;div&gt;&lt;span style=&quot;font-size: 16px;&quot;&gt;敏&lt;/span&gt;&lt;br&gt;&lt;div&gt;&lt;span style=&quot;font-size: 16px;&quot;&gt;传&lt;/span&gt;&lt;/div&gt;&lt;div&gt;&lt;span style=&quot;font-size: 16px;&quot;&gt;感&lt;/span&gt;&lt;/div&gt;&lt;div&gt;&lt;span style=&quot;font-size: 16px;&quot;&gt;器&lt;/span&gt;&lt;/div&gt;&lt;/div&gt;" style="rounded=0;whiteSpace=wrap;html=1;" vertex="1" parent="1">
          <mxGeometry x="200" y="372.5" width="110" height="205" as="geometry" />
        </mxCell>
        <mxCell id="YeZupqF_5-cxzTXe40vk-4" value="" style="rounded=0;whiteSpace=wrap;html=1;" vertex="1" parent="1">
          <mxGeometry x="290" y="436" width="20" height="20" as="geometry" />
        </mxCell>
        <mxCell id="YeZupqF_5-cxzTXe40vk-5" value="" style="rounded=0;whiteSpace=wrap;html=1;direction=south;" vertex="1" parent="1">
          <mxGeometry x="290" y="484" width="20" height="20" as="geometry" />
        </mxCell>
        <mxCell id="YeZupqF_5-cxzTXe40vk-6" value="" style="rounded=0;whiteSpace=wrap;html=1;" vertex="1" parent="1">
          <mxGeometry x="290" y="540" width="20" height="20" as="geometry" />
        </mxCell>
        <mxCell id="YeZupqF_5-cxzTXe40vk-7" value="" style="rounded=0;whiteSpace=wrap;html=1;" vertex="1" parent="1">
          <mxGeometry x="460" y="390" width="20" height="20" as="geometry" />
        </mxCell>
        <mxCell id="YeZupqF_5-cxzTXe40vk-8" value="" style="rounded=0;whiteSpace=wrap;html=1;" vertex="1" parent="1">
          <mxGeometry x="460" y="486" width="20" height="20" as="geometry" />
        </mxCell>
        <mxCell id="YeZupqF_5-cxzTXe40vk-9" value="" style="rounded=0;whiteSpace=wrap;html=1;" vertex="1" parent="1">
          <mxGeometry x="460" y="537" width="20" height="20" as="geometry" />
        </mxCell>
        <mxCell id="YeZupqF_5-cxzTXe40vk-11" value="" style="endArrow=none;html=1;rounded=0;exitX=1;exitY=0.5;exitDx=0;exitDy=0;entryX=0;entryY=0.5;entryDx=0;entryDy=0;" edge="1" parent="1">
          <mxGeometry width="50" height="50" relative="1" as="geometry">
            <mxPoint x="310" y="496.5" as="sourcePoint" />
            <mxPoint x="460" y="496.5" as="targetPoint" />
          </mxGeometry>
        </mxCell>
        <mxCell id="YeZupqF_5-cxzTXe40vk-12" value="" style="endArrow=none;html=1;rounded=0;exitX=1;exitY=0.5;exitDx=0;exitDy=0;entryX=0;entryY=0.5;entryDx=0;entryDy=0;" edge="1" parent="1">
          <mxGeometry width="50" height="50" relative="1" as="geometry">
            <mxPoint x="310" y="548.5" as="sourcePoint" />
            <mxPoint x="460" y="548.5" as="targetPoint" />
          </mxGeometry>
        </mxCell>
        <mxCell id="YeZupqF_5-cxzTXe40vk-13" value="&lt;span style=&quot;font-size: 16px;&quot;&gt;AO&lt;/span&gt;" style="text;html=1;align=center;verticalAlign=middle;whiteSpace=wrap;rounded=0;" vertex="1" parent="1">
          <mxGeometry x="300" y="378" width="60" height="30" as="geometry" />
        </mxCell>
        <mxCell id="YeZupqF_5-cxzTXe40vk-14" value="&lt;font style=&quot;font-size: 16px;&quot;&gt;&amp;nbsp; &amp;nbsp;GND&lt;/font&gt;" style="text;html=1;align=center;verticalAlign=middle;whiteSpace=wrap;rounded=0;" vertex="1" parent="1">
          <mxGeometry x="299" y="470" width="60" height="30" as="geometry" />
        </mxCell>
        <mxCell id="YeZupqF_5-cxzTXe40vk-15" value="&lt;font style=&quot;font-size: 16px;&quot;&gt;VCC&lt;/font&gt;" style="text;html=1;align=center;verticalAlign=middle;whiteSpace=wrap;rounded=0;" vertex="1" parent="1">
          <mxGeometry x="305" y="522" width="60" height="30" as="geometry" />
        </mxCell>
        <mxCell id="YeZupqF_5-cxzTXe40vk-16" value="&lt;span style=&quot;font-size: 16px;&quot;&gt;D34&lt;/span&gt;" style="text;html=1;align=center;verticalAlign=middle;whiteSpace=wrap;rounded=0;" vertex="1" parent="1">
          <mxGeometry x="404" y="378" width="60" height="30" as="geometry" />
        </mxCell>
        <mxCell id="YeZupqF_5-cxzTXe40vk-17" value="&lt;span style=&quot;font-size: 16px;&quot;&gt;GND&lt;/span&gt;" style="text;html=1;align=center;verticalAlign=middle;whiteSpace=wrap;rounded=0;" vertex="1" parent="1">
          <mxGeometry x="405" y="471" width="60" height="30" as="geometry" />
        </mxCell>
        <mxCell id="YeZupqF_5-cxzTXe40vk-18" value="&lt;span style=&quot;font-size: 16px;&quot;&gt;3V3&lt;/span&gt;" style="text;html=1;align=center;verticalAlign=middle;whiteSpace=wrap;rounded=0;" vertex="1" parent="1">
          <mxGeometry x="406" y="522" width="60" height="30" as="geometry" />
        </mxCell>
        <mxCell id="YeZupqF_5-cxzTXe40vk-19" value="" style="rounded=0;whiteSpace=wrap;html=1;" vertex="1" parent="1">
          <mxGeometry x="290" y="390" width="20" height="20" as="geometry" />
        </mxCell>
        <mxCell id="YeZupqF_5-cxzTXe40vk-20" value="&lt;span style=&quot;font-size: 16px;&quot;&gt;DO&lt;/span&gt;" style="text;html=1;align=center;verticalAlign=middle;whiteSpace=wrap;rounded=0;" vertex="1" parent="1">
          <mxGeometry x="301" y="420" width="60" height="30" as="geometry" />
        </mxCell>
        <mxCell id="YeZupqF_5-cxzTXe40vk-21" value="" style="endArrow=none;html=1;rounded=0;exitX=1;exitY=0.5;exitDx=0;exitDy=0;entryX=0;entryY=0.5;entryDx=0;entryDy=0;" edge="1" parent="1">
          <mxGeometry width="50" height="50" relative="1" as="geometry">
            <mxPoint x="310" y="402" as="sourcePoint" />
            <mxPoint x="460" y="402" as="targetPoint" />
          </mxGeometry>
        </mxCell>
      </root>
    </mxGraphModel>
  </diagram>
</mxfile>
